# Blender v2.93.0 OBJ File: ''
# www.blender.org
mtllib branch.mtl
o Branch_01_Cylinder.003
v 0.038574 0.027720 -0.022532
v -0.192212 0.041362 -0.026855
v -0.390856 0.027537 -0.013339
v 0.038045 0.018732 0.002591
v -0.194765 0.026887 0.018457
v 0.036986 0.035679 0.021444
v -0.194458 0.041241 0.032630
v 0.036457 0.061614 0.015174
v -0.196924 0.061347 0.017404
v 0.037699 0.067421 -0.007089
v -0.192066 0.063752 -0.011658
v 0.038758 0.050474 -0.025942
v 0.306580 0.035311 -0.020497
v 0.305897 0.013061 -0.006877
v 0.305434 0.014615 0.018019
v 0.302091 0.035844 0.032093
v 0.311177 0.045231 0.015304
v 0.298368 0.058759 0.019474
v 0.304307 0.056454 -0.008313
v -0.391701 0.048210 -0.024325
v -0.532245 0.034499 -0.017925
v -0.393032 0.028514 0.007574
v -0.393477 0.048210 0.018207
v -0.533766 0.033147 0.010170
v -0.392434 0.064319 0.007574
v -0.391547 0.064319 -0.013692
v -0.532425 0.050911 -0.006725
v -0.232685 0.063778 -0.014610
v -0.237543 0.061373 0.014452
v -0.268933 0.192039 -0.034674
v -0.273135 0.190681 -0.018309
v -0.286413 0.178099 -0.041061
v -0.290615 0.176741 -0.024696
v -0.335877 0.246411 -0.043779
v -0.341397 0.234417 -0.053325
v -0.418188 0.025787 -0.005082
v -0.416980 0.028823 -0.014186
v -0.419392 0.029381 0.008060
v -0.455531 -0.003038 0.008187
v -0.442018 -0.003703 0.008625
v -0.443144 -0.003198 0.019442
v -0.456156 -0.004608 0.012896
v -0.456778 -0.002749 0.019694
vt 0.064836 0.942535
vt 0.087134 0.942535
vt 0.087134 0.964833
vt 0.064836 0.942535
vt 0.087134 0.942535
vt 0.087134 0.964833
vt 0.064836 0.942535
vt 0.087134 0.942535
vt 0.087134 0.964833
vt 0.064836 0.942535
vt 0.087134 0.942535
vt 0.064836 0.942535
vt 0.087134 0.942535
vt 0.087134 0.964833
vt 0.064836 0.942535
vt 0.087134 0.942535
vt 0.087134 0.964833
vt 0.221406 0.973926
vt 0.243704 0.973926
vt 0.243704 0.996225
vt 0.064836 0.942535
vt 0.087134 0.942535
vt 0.087134 0.964833
vt 0.087134 0.942535
vt 0.087134 0.964833
vt 0.087134 0.942535
vt 0.087134 0.964833
vt 0.064836 0.942535
vt 0.087134 0.942535
vt 0.087134 0.964833
vt 0.064836 0.942535
vt 0.087134 0.942535
vt 0.221406 0.973926
vt 0.243704 0.973926
vt 0.243704 0.996225
vt 0.064836 0.942535
vt 0.087134 0.942535
vt 0.225583 0.973926
vt 0.225526 0.978046
vt 0.225526 0.978046
vt 0.225583 0.973926
vt 0.221406 0.973926
vt 0.243704 0.973926
vt 0.243704 0.996225
vt 0.221406 0.973926
vt 0.243704 0.973926
vt 0.243704 0.996225
vt 0.221406 0.973926
vt 0.243704 0.996225
vt 0.064836 0.942535
vt 0.087134 0.942535
vt 0.087134 0.964833
vt 0.064836 0.942535
vt 0.087134 0.964833
vt 0.064836 0.942535
vt 0.087134 0.942535
vt 0.087134 0.964833
vt 0.064836 0.942535
vt 0.087134 0.942535
vt 0.087134 0.964833
vt 0.064836 0.942535
vt 0.064836 0.942535
vt 0.087134 0.942535
vt 0.087134 0.964833
vt 0.087134 0.964833
vt 0.087134 0.964833
vt 0.064836 0.942535
vt 0.087134 0.942535
vt 0.064836 0.942535
vt 0.087134 0.964833
vt 0.064836 0.942535
vt 0.087134 0.964833
vt 0.087134 0.942535
vt 0.087134 0.942535
vt 0.064836 0.942535
vt 0.087134 0.964833
vt 0.087134 0.964833
vt 0.087134 0.964833
vt 0.087134 0.942535
vt 0.087134 0.964833
vt 0.221406 0.973926
vt 0.243704 0.973926
vt 0.243704 0.996225
vt 0.221406 0.973926
vt 0.243704 0.973926
vt 0.221406 0.973926
vt 0.243704 0.973926
vt 0.087134 0.964833
vt 0.087134 0.942535
vt 0.087134 0.942535
vt 0.087134 0.942535
vt 0.087134 0.942535
vt 0.087134 0.964833
vt 0.087134 0.964833
vt 0.221406 0.973926
vt 0.243704 0.996225
vt 0.087134 0.942535
vt 0.243704 0.973926
vt 0.243704 0.978046
vt 0.243704 0.996225
vt 0.243704 0.973926
vt 0.243704 0.978046
vt 0.221406 0.973926
vt 0.243704 0.973926
vt 0.243704 0.996225
vt 0.225582 0.978103
vt 0.243704 0.973926
vt 0.243704 0.996225
vt 0.221406 0.973926
vt 0.087134 0.964833
vt 0.064836 0.942535
vt 0.087134 0.942535
vt 0.087134 0.964833
vt 0.087134 0.942535
vt 0.087134 0.964833
vt 0.221406 0.973926
vt 0.225583 0.978103
vt 0.243704 0.978103
vt 0.225583 0.978103
vt 0.243704 0.978103
vt 0.243704 0.973926
vt 0.087134 0.964833
vt 0.064836 0.942535
vt 0.225582 0.978103
vt 0.221406 0.973926
vn -0.0577 0.5982 0.7993
vn 0.8235 0.5357 0.1868
vn 0.8114 0.5310 0.2442
vn 0.8243 0.5360 0.1821
vn 0.0688 -0.1484 -0.9865
vn 0.0275 0.7442 -0.6674
vn 0.0064 0.9675 0.2527
vn -0.0392 0.2340 0.9714
vn 0.9008 -0.1323 0.4136
vn -0.0605 -0.0891 -0.9942
vn 0.0403 0.5175 -0.8547
vn -0.0695 -0.1473 -0.9866
vn 0.0000 0.7786 -0.6275
vn -0.0167 0.9992 0.0352
vn -0.0175 0.9967 0.0795
vn 0.0012 0.9558 0.2941
vn 0.0070 0.6379 0.7701
vn 0.0069 0.6042 0.7968
vn 0.0513 0.1856 0.9813
vn 0.0213 -0.6544 0.7559
vn 0.0175 -0.7027 0.7113
vn -0.0400 -0.7442 0.6667
vn -0.0493 -0.9401 -0.3374
vn 0.0079 -0.7435 0.6687
vn 0.6627 0.4410 0.6053
vn 0.0292 -0.9413 -0.3362
vn -0.9872 0.0073 0.1592
vn -0.1982 -0.7282 -0.6560
vn -0.8561 -0.1294 -0.5004
vn -0.8203 -0.5010 -0.2759
vn -0.1067 0.5525 0.8266
vn -0.0949 0.9955 -0.0040
vn -0.0933 0.5491 -0.8305
vn -0.0735 -0.6838 0.7260
vn -0.0548 -0.4938 0.8679
vn -0.0521 -0.4753 0.8783
vn 0.0083 0.5508 -0.8346
vn 0.0048 0.9999 0.0100
vn 0.0141 0.9969 0.0770
vn 0.0034 1.0000 0.0001
vn -0.0265 0.5519 0.8335
vn -0.0273 -0.4700 -0.8823
vn -0.8701 -0.4547 -0.1901
vn -0.8473 -0.4712 -0.2449
vn -0.8727 -0.4526 -0.1833
vn 0.1096 -0.1617 -0.9807
vn 0.2915 -0.0055 -0.9566
vn 0.3252 0.0253 -0.9453
vn -0.0999 0.2184 0.9707
vn -0.3639 0.1334 0.9218
vn -0.4192 0.1129 0.9009
vn 0.2418 0.1369 -0.9606
vn -0.6727 -0.2459 0.6979
vn 0.5974 0.7719 0.2174
vn 0.8096 0.5303 0.2519
vn -0.0075 0.4987 -0.8668
vn 0.0604 0.5603 -0.8261
vn 0.0406 0.9964 -0.0740
vn -0.0091 0.4812 0.8766
vn -0.0330 -0.5558 0.8306
vn 0.9829 -0.1818 0.0296
vn 0.9905 -0.0926 -0.1015
vn 0.9613 0.2076 -0.1810
vn 0.0486 0.5607 -0.8266
vn 0.0014 0.7437 -0.6685
vn 0.0013 0.9676 0.2525
vn 0.0526 0.2357 0.9704
vn 0.0400 -0.9631 -0.2662
vn 0.0086 -0.7593 -0.6507
vn -0.0773 -0.9952 0.0607
vn 0.7379 0.6671 0.1024
vn -0.0412 -0.5207 -0.8527
vn 0.0055 -0.4691 -0.8831
vn -0.0017 -0.5733 -0.8193
vn 0.0006 -0.4750 0.8800
vn -0.1387 0.6880 0.7124
vn -0.0922 0.5606 -0.8229
vn -0.9983 0.0251 -0.0528
vn -0.0760 -0.6998 0.7103
vn -0.0035 0.4746 -0.8802
vn -0.0107 -0.9989 0.0455
vn 0.0152 0.9963 0.0850
vn -0.0343 0.6283 0.7772
vn -0.6706 -0.7050 -0.2307
vn -0.8424 -0.4743 -0.2557
vn 0.0710 -0.1931 -0.9786
vn -0.0704 0.2267 0.9714
vn 0.5381 0.3593 -0.7625
vn -0.3589 0.0224 0.9331
vn -0.0362 -0.9466 -0.3205
vn -0.9279 -0.3725 0.0169
vn -0.4392 0.1126 0.8913
vn -0.0269 -0.9648 0.2614
vn -0.0620 -0.9907 -0.1214
vn -0.8803 -0.4680 -0.0779
vn -0.7955 -0.1270 0.5924
vn 0.0803 -0.9953 0.0548
vn 0.0491 -0.9920 0.1161
vn 0.5484 -0.8307 0.0959
vn 0.5547 -0.7212 0.4149
vn 0.2968 -0.1142 0.9481
usemtl Nature_Mat_01
s 1
f 7/1/1 9/2/1 29/3/1
f 11/4/2 31/5/3 9/6/4
f 19/7/5 1/8/5 12/9/5
f 10/10/6 19/11/6 12/9/6
f 8/12/7 18/13/7 10/14/7
f 6/15/8 16/16/8 8/17/8
f 17/18/9 16/19/9 15/20/9
f 1/21/10 11/22/11 12/9/12
f 10/10/13 11/22/14 9/6/15
f 8/12/16 9/2/17 7/23/18
f 6/15/19 7/24/20 5/25/21
f 6/15/22 3/26/22 4/27/22
f 4/28/23 2/29/23 1/30/23
f 14/31/24 6/32/24 4/27/24
f 16/33/25 17/34/25 18/35/25
f 13/36/26 4/37/26 1/30/26
f 36/38/27 37/39/28 39/40/29 42/41/30
f 25/42/31 24/43/31 23/44/31
f 26/45/32 27/46/32 25/47/32
f 20/48/33 27/46/33 26/49/33
f 5/50/34 23/51/35 22/52/36
f 26/53/37 2/29/37 20/54/37
f 25/55/38 28/56/39 26/57/40
f 23/58/41 29/59/41 25/60/41
f 2/61/42 3/26/42 20/54/42
f 29/62/43 32/63/44 28/64/45
f 11/4/46 32/63/47 30/65/48
f 29/62/49 31/5/50 33/66/51
f 32/67/52 34/68/52 30/65/52
f 33/69/53 34/68/53 35/70/53
f 30/71/54 34/68/54 31/72/54
f 11/4/2 30/73/55 31/72/3
f 19/7/56 13/74/56 1/30/56
f 28/75/57 11/22/57 2/76/57
f 10/10/58 18/13/58 19/77/58
f 8/12/59 16/16/59 18/78/59
f 6/15/60 15/79/60 16/80/60
f 15/81/61 14/82/61 17/83/61
f 14/84/62 13/85/62 17/83/62
f 13/86/63 19/87/63 17/83/63
f 1/21/10 2/29/64 11/88/11
f 10/10/13 12/89/65 11/88/14
f 8/12/16 10/90/66 9/6/17
f 6/15/19 8/91/67 7/23/20
f 6/15/68 5/92/68 3/93/68
f 4/28/69 3/26/69 2/76/69
f 14/31/70 15/79/70 6/94/70
f 18/95/71 17/34/71 19/96/71
f 13/36/72 14/97/72 4/27/72
f 20/48/73 3/98/73 37/99/73 21/100/73
f 37/99/28 3/98/74 40/101/74 39/102/29
f 22/103/75 23/104/75 24/105/75 38/106/75
f 25/42/76 27/46/76 24/105/76
f 20/48/77 21/107/77 27/108/77
f 27/109/78 21/107/78 24/105/78
f 5/50/34 7/24/79 23/110/35
f 26/53/80 28/56/80 2/76/80
f 3/111/81 5/92/81 22/52/81
f 25/55/38 29/59/82 28/64/39
f 23/58/83 7/24/83 29/3/83
f 32/67/84 33/112/84 35/70/84
f 29/62/43 33/112/85 32/113/44
f 11/4/46 28/56/86 32/113/47
f 29/62/49 9/2/87 31/72/50
f 32/67/88 35/114/88 34/115/88
f 33/69/89 31/5/89 34/115/89
f 40/116/90 42/41/30 39/40/29
f 36/117/91 38/118/92 24/105/93
f 37/39/28 36/38/27 24/43/94 21/100/94
f 38/118/92 36/117/91 42/119/95 43/120/96
f 40/116/97 41/121/98 42/119/95
f 42/119/95 41/121/98 43/120/96
f 3/111/99 22/52/100 41/122/101 40/123/99
f 22/103/100 38/106/92 43/124/96 41/125/101
